<svg width="512" height="512" viewBox="0 0 512 512" fill="none" xmlns="http://www.w3.org/2000/svg">
<g clip-path="url(#clip0)">
<path d="M275.845 481.442L309.709 441.096C280.408 412.127 252.96 384.148 239.467 348.499C232.477 331.028 229.822 312.123 231.728 293.403C234.759 274.386 242.312 256.375 253.753 240.887C265.13 224.02 279.019 207.816 290.991 188.768C304.106 169.343 312.508 147.125 315.529 123.882C321.151 77.583 305.937 28.8366 275.844 0C303.292 32.2771 312.552 80.2957 303.69 121.303C299.329 141.295 290.258 159.956 277.234 175.737C264.469 191.612 249.388 205.766 235.499 222.697C219.276 240.879 207.781 262.778 202.032 286.457C196.887 311.873 198.001 338.158 205.274 363.049C212.069 386.404 222.491 408.545 236.163 428.66C248.46 446.934 261.706 464.55 275.845 481.442V481.442Z" fill="black"/>
<path d="M469.969 511.537C446.116 477.773 407.334 457.717 365.994 457.763C363.018 457.763 360.109 457.763 357.131 458.227C315.631 401.461 235.969 389.086 179.203 430.587C168.622 438.322 159.299 447.646 151.562 458.227C149.71 458.227 147.859 458.227 146.006 458.227C104.671 458.202 65.8985 478.254 42.0311 512.001L469.969 511.537Z" fill="black"/>
<path d="M248.33 357.03C247.329 354.874 246.447 352.667 245.684 350.416C243.593 344.232 242.152 337.848 241.385 331.366C238.852 309.562 243.871 287.548 255.606 268.994C263.576 256.495 274.243 245.94 286.824 238.105C301.827 228.723 318.909 223.179 336.562 221.966C357 220.524 377.449 224.613 395.759 233.806C416.912 244.282 434.41 260.904 445.96 281.493L440.866 284.073C437.492 285.793 432.599 288.371 426.579 292.011C410.173 301.726 395.344 313.881 382.595 328.057C373.537 338.063 363.91 347.536 353.758 356.432C346.083 363.882 337.29 370.087 327.698 374.82C317.667 379.112 306.555 380.198 295.885 377.929C278.674 374.596 262.425 367.454 248.33 357.03V357.03Z" fill="#2C2C2C"/>
<path d="M405.083 265.822C409.427 266.471 413.731 267.354 417.979 268.468C383.491 253.881 344.32 255.285 310.963 272.304C317.907 264.109 323.427 254.808 327.3 244.789C328.646 241.358 329.277 237.69 329.152 234.009C321.887 249.008 313.157 263.252 303.092 276.537C282.247 288.879 265.359 306.915 254.412 328.524C247.646 341.771 243.683 356.272 242.771 371.118C242.695 375.568 245.631 379.505 249.914 380.709C256.529 382.759 261.356 396.053 260.562 389.902C257.916 372.441 264.464 333.153 274.319 318.006C290.689 309.521 309.84 308.182 327.232 314.303C335.46 316.958 343.128 321.107 349.852 326.54C339.535 315.383 326.174 307.496 311.425 303.854C302.711 301.685 293.575 301.892 284.969 304.449C296.363 292.04 310.276 282.207 325.778 275.613C332.733 272.582 339.95 270.19 347.341 268.469C357.074 268.838 366.462 272.159 374.261 277.994C377.149 280.213 379.654 282.894 381.669 285.932C376.744 276.524 368.343 269.405 358.255 266.089C362.62 265.362 366.919 264.768 371.02 264.436C382.392 263.568 393.823 264.034 405.083 265.822V265.822Z" fill="black"/>
<path d="M314.073 107.81C314.29 106.141 314.6 104.485 315 102.849C319.406 83.894 332.146 67.9457 349.659 59.4605C358.702 55.125 368.599 52.8645 378.628 52.8459C390.613 52.7333 402.437 55.6209 413.021 61.245C425.287 67.6699 435.61 77.2623 442.917 89.0249C451.366 102.607 455.537 118.414 454.889 134.397H450.987C448.473 134.397 444.77 133.933 440.008 133.868C427.101 133.676 414.238 135.414 401.845 139.028C393.155 141.572 384.318 143.605 375.39 145.112C368.305 146.748 361.006 147.262 353.761 146.633C346.331 145.419 339.452 141.954 334.051 136.711C325.335 128.675 318.512 118.803 314.073 107.81V107.81Z" fill="#2C2C2C"/>
<path d="M436.831 110.92C441.065 114.623 443.446 117.07 443.446 117.07C428.748 96.4124 405.683 83.2934 380.414 81.2225C387.317 78.9832 393.802 75.6077 399.596 71.2351C401.598 69.7184 403.262 67.8039 404.491 65.6123C394.978 71.666 384.898 76.7823 374.396 80.8897C358.071 80.6405 342.011 85.0462 328.097 93.5884C319.475 98.7963 312.003 105.705 306.139 113.893C304.53 116.45 304.858 119.769 306.933 121.962C309.976 125.466 308.058 134.859 309.777 131.023C317.586 116.163 329.118 103.582 343.243 94.5125C355.612 95.4221 367.055 101.407 374.859 111.048C378.67 115.508 381.608 120.647 383.523 126.194C381.537 116.195 376.662 106.995 369.501 99.7389C365.14 95.2669 359.657 92.0465 353.627 90.4131C364.707 87.32 376.32 86.6199 387.69 88.3634C392.761 89.1483 397.759 90.3415 402.637 91.9338C408.105 95.5904 412.328 100.83 414.742 106.947C415.622 109.274 416.092 111.735 416.13 114.224C416.623 106.996 414.247 99.8662 409.515 94.3813C412.294 95.5069 415.006 96.7625 417.453 98.018C424.386 101.563 430.889 105.891 436.831 110.92Z" fill="black"/>
<path d="M210.165 244.457C210.165 244.457 225.84 260.398 213.473 255.105C201.106 249.812 157.914 235.923 144.09 229.31C125.434 216.892 112.178 197.867 106.984 176.066C103.11 163.828 97.2316 152.317 89.5896 142.003C89.5896 142.003 90.2512 140.814 91.8382 138.433C94.2114 134.884 96.9373 131.581 99.9721 128.577C112.959 116.167 129.274 107.803 146.931 104.503C165.275 101.594 184.054 105.372 199.845 115.15C218.725 126.234 233.735 142.86 242.836 162.771C251.021 179.041 252.493 197.875 246.937 215.22C241.452 229.842 229.148 239.96 210.165 244.457V244.457Z" fill="#2C2C2C"/>
<path d="M227.627 246.112C214.929 233.808 201.172 218.664 190.787 207.95C187.829 191.992 185.884 175.865 184.965 159.665C183.378 144.651 181.395 132.745 181.395 132.745C181.859 152.192 180.534 165.816 180.269 176.068C179.711 183.377 180.021 190.725 181.196 197.96C169.636 185.563 156.749 174.473 142.768 164.888C139.149 159.242 136.448 153.058 134.764 146.567C133.97 143.334 133.484 140.034 133.31 136.711C132.898 145.028 134.133 153.346 136.947 161.183C134.632 159.795 132.317 158.47 130.332 157.281C124.594 154.193 118.625 151.561 112.475 149.409C108.176 147.889 105.86 147.161 105.86 147.161C123.328 157.767 139.78 169.968 155.004 183.605C147.434 182.101 139.58 183.124 132.65 186.515C129.924 187.802 127.368 189.424 125.043 191.344C135.434 185.745 147.572 184.325 158.974 187.376C180.28 208.866 199.32 232.493 215.789 257.881C217.993 261.199 222.26 262.455 225.909 260.858C230.321 258.42 231.923 252.867 229.486 248.456C228.998 247.578 228.371 246.786 227.627 246.112Z" fill="black"/>
</g>
<defs>
<clipPath id="clip0">
<rect width="512" height="512" fill="white"/>
</clipPath>
</defs>
</svg>
