<svg width="513" height="513" viewBox="0 0 513 513" fill="none" xmlns="http://www.w3.org/2000/svg">
<g clip-path="url(#clip0)">
<path d="M495.325 423.135C498.685 421.034 500.581 417.222 500.226 413.273C500.077 411.612 496.25 372.283 468.129 344.162C464.601 340.634 460.821 337.42 456.82 334.543C466.393 324.186 479.985 306.758 485.065 286.903C486.312 282.029 483.932 276.954 479.388 274.794C477.183 273.747 439.914 256.353 395.247 254.626C429.594 233.346 473.118 201.551 499.041 164.358C502.574 159.285 500.997 152.256 495.604 149.195C494.733 148.701 477.597 139.076 453.233 132.557C467.512 112.944 489.318 74.277 484.381 25.946C483.874 20.982 479.95 17.058 474.986 16.551C426.654 11.614 387.987 33.421 368.374 47.698C361.857 23.335 352.231 6.19796 351.737 5.32696C348.687 -0.0570426 341.651 -1.64904 336.574 1.88996C299.38 27.812 267.587 71.338 246.306 105.684C244.578 61.016 227.186 23.747 226.138 21.543C223.977 16.999 218.903 14.62 214.03 15.867C194.175 20.946 176.746 34.538 166.388 44.11C163.512 40.109 160.298 36.33 156.77 32.802C128.646 4.67996 89.3191 0.854957 87.6591 0.705957C83.7101 0.350957 79.8991 2.24796 77.7991 5.60796C58.6501 36.243 60.6851 70.006 64.4661 89.914C40.4861 86.724 20.4131 90.926 19.3801 91.148C13.5861 92.395 9.97706 98.175 11.3721 103.919C22.1161 148.088 51.3111 188.474 84.2901 219.695L39.8811 224.869C32.2781 225.754 28.1061 234.249 32.1301 240.814C76.6501 313.45 28.6401 353.706 26.6161 355.351C19.2001 361.249 22.7911 373.219 32.2281 374.06L119.111 381.822C128.042 471.869 125.046 470.342 129.913 475.209C134.528 479.824 142.103 479.192 145.905 473.94C147.775 471.805 157.709 461.142 174.465 454.795C200.218 445.041 229.038 449.753 260.119 468.803C263.18 470.679 266.985 470.865 270.214 469.296C273.443 467.726 275.648 464.618 276.064 461.052L281.238 416.643C283.135 418.646 285.187 420.763 287.39 422.966C287.392 422.968 287.392 422.968 287.392 422.969C311.462 447.039 350.02 478.132 397.014 489.562C402.759 490.958 408.539 487.345 409.784 481.554C410.007 480.522 414.209 460.449 411.019 436.469C430.926 440.247 464.69 442.282 495.325 423.135Z" fill="black"/>
<path d="M127.185 373.75C83.0791 252.169 125.858 115.339 233.783 40.9779C229.929 29.6549 226.579 22.4739 226.138 21.5449C223.977 17.0009 218.903 14.6219 214.03 15.8689C194.175 20.9479 176.746 34.5399 166.388 44.1119C163.512 40.1109 160.298 36.3319 156.77 32.8039C128.646 4.67994 89.3191 0.85494 87.6591 0.70594C83.7101 0.35094 79.8991 2.24794 77.7991 5.60794C58.6501 36.2429 60.6851 70.0059 64.4661 89.9139C40.4861 86.7239 20.4131 90.9259 19.3801 91.1479C13.5861 92.3949 9.97706 98.1749 11.3721 103.919C22.1161 148.088 51.3111 188.474 84.2901 219.695L39.8811 224.869C32.2781 225.754 28.1061 234.249 32.1301 240.814C76.6501 313.45 28.6401 353.706 26.6161 355.351C19.2001 361.249 22.7911 373.219 32.2281 374.06L119.111 381.822V381.825L127.185 373.75Z" fill="black"/>
<path d="M302.477 322.987L305.994 320.045L325.631 303.625C327.791 301.819 328.078 298.604 326.272 296.445C324.466 294.285 321.251 293.998 319.091 295.803C319.09 295.803 319.09 295.803 319.09 295.803L291.622 318.771L290.624 319.605L289.368 319.267C262.133 311.936 231.831 306.55 202.053 306.766L195.92 306.81L200.274 302.491C216.753 286.145 239.361 264.659 254.832 250.174L254.836 250.171C254.89 250.12 256.463 248.659 257.969 247.26L259.988 245.385L260.594 244.822L260.727 244.699L260.731 244.695L260.732 244.694L260.743 244.684L260.744 244.682L260.745 244.681L260.746 244.681L260.765 244.663C260.766 244.662 260.768 244.661 260.772 244.661C267.237 238.696 273.586 232.895 279.776 227.299L280.539 226.609L281.567 226.656C327.62 228.754 327.759 228.77 327.897 228.766C327.904 228.766 327.911 228.766 327.923 228.766C330.629 228.766 332.885 226.633 333.01 223.9C333.138 221.087 330.962 218.704 328.149 218.575L328.149 218.575L297.479 217.175L291.339 216.895L295.931 212.81C348.274 166.255 386.132 136.294 386.648 135.887C388.859 134.142 389.236 130.937 387.492 128.727L387.491 128.727C385.747 126.516 382.541 126.139 380.332 127.883L380.332 127.884C380.038 128.115 363.876 140.903 338.174 162.653L334.45 165.804L334.067 160.942L332.508 141.174C332.286 138.363 329.828 136.266 327.029 136.492L327.025 136.492C324.22 136.714 322.125 139.165 322.343 141.972C323.318 153.835 323.843 160.825 324.16 165.037C324.245 166.168 324.315 167.099 324.375 167.87C324.518 169.724 324.595 170.569 324.667 171.059C324.717 171.395 324.744 171.47 324.866 171.81L324.884 171.86L325.463 173.479L324.159 174.6C302.513 193.185 280.389 212.814 259.446 232.022L255.667 235.488L255.264 230.377L253.33 205.855C253.108 203.044 250.652 200.948 247.85 201.173L247.847 201.173C245.041 201.395 242.945 203.848 243.165 206.656C243.165 206.657 243.165 206.657 243.165 206.657L246.041 243.114L246.136 244.318L245.253 245.14C229.258 260.038 213.22 275.387 197.224 291.171L193.123 295.218L192.969 289.459C192.246 262.385 187.196 235.157 180.547 210.457L180.209 209.201L181.043 208.203L204.015 180.73C204.015 180.729 204.015 180.729 204.015 180.729C205.82 178.57 205.534 175.355 203.375 173.548C201.215 171.743 197.999 172.03 196.193 174.189L179.77 193.831L176.828 197.349L175.465 192.97C161.708 148.783 144.716 116.28 143.482 113.947L143.482 113.947C142.166 111.458 139.081 110.507 136.593 111.824L136.593 111.824C134.104 113.14 133.154 116.225 134.47 118.713L134.471 118.714C134.908 119.542 164.799 176.716 177.374 242.559L178.368 247.768L173.717 245.221L153.698 234.257L153.698 234.257C151.229 232.904 148.131 233.81 146.779 236.279L146.779 236.279C145.427 238.746 146.331 241.843 148.796 243.196C160.987 249.838 168.026 253.718 172.188 256.012C173.159 256.548 173.974 256.997 174.661 257.375C178.047 259.236 178.189 259.275 178.556 259.375C178.591 259.385 178.628 259.395 178.671 259.407L180.234 259.865L180.447 261.479C182.346 275.83 183.248 290.396 182.694 304.71L182.656 305.683L181.97 306.375C176.158 312.226 170.301 318.187 164.414 324.264L163.214 325.503L161.63 324.822C151.367 320.407 131.821 312.852 109.022 308.302L109.018 308.301C106.265 307.747 103.576 309.54 103.025 312.302C102.474 315.063 104.265 317.748 107.025 318.298L107.025 318.298C125.35 321.956 141.692 327.744 152.244 331.984L155.664 333.359L153.122 336.028C104.289 387.311 54.7674 445.166 18.2045 501.633L18.2043 501.633C16.6745 503.995 17.3491 507.151 19.7118 508.682C20.5729 509.239 21.53 509.502 22.477 509.502C24.1552 509.502 25.7884 508.679 26.7624 507.174L26.7625 507.174C63.2926 450.76 112.918 392.932 161.667 341.839L164.286 339.095L165.775 342.583C169.99 352.455 177.213 371.218 181.521 392.794L181.521 392.794C182.004 395.216 184.131 396.895 186.512 396.895C189.744 396.895 192.147 393.942 191.519 390.798C185.95 362.9 175.886 339.877 172.589 332.788L171.863 331.228L173.062 329.993C176.919 326.02 180.76 322.101 184.585 318.226L185.458 317.341L186.69 317.503C186.854 317.525 187.261 317.538 188.083 317.509C188.789 317.484 189.669 317.434 190.762 317.373L191.098 317.354C193.58 317.215 196.957 317.034 201.253 316.974C209.851 316.855 222.092 317.225 238.335 319.378L239.949 319.591L240.406 321.154C240.417 321.192 240.426 321.225 240.435 321.256C240.521 321.577 240.559 321.718 242.424 325.115C242.837 325.867 243.336 326.772 243.939 327.868C246.255 332.074 250.118 339.087 256.623 351.02C257.974 353.485 261.072 354.395 263.542 353.041L263.542 353.041C266.011 351.689 266.917 348.591 265.564 346.122L265.564 346.122L254.607 326.114L252.059 321.461L257.269 322.457C323.012 335.027 380.164 364.851 381.107 365.349L302.477 322.987ZM302.477 322.987L306.855 324.35M302.477 322.987L306.855 324.35M163.476 343.565L165.285 345.291C165.034 345.553 164.783 345.816 164.533 346.079C164.163 345.187 163.81 344.348 163.476 343.565ZM163.476 343.565L161.177 344.547C161.314 344.867 161.454 345.198 161.597 345.537C162.223 344.879 162.85 344.221 163.476 343.565ZM306.855 324.35C351.039 338.109 383.54 355.104 385.874 356.337M306.855 324.35L385.874 356.337M385.874 356.337C388.362 357.654 389.312 360.736 387.997 363.225M385.874 356.337L387.997 363.225M387.997 363.225C386.679 365.717 383.595 366.662 381.108 365.35L387.997 363.225ZM149.457 336.255C149.769 336.379 150.077 336.502 150.38 336.624L151.312 334.304L149.502 332.58C149.27 332.824 149.038 333.067 148.805 333.311C138.352 329.232 123.269 324.09 106.536 320.75C102.421 319.929 99.752 315.927 100.573 311.813L149.457 336.255Z" fill="white" stroke="black" stroke-width="5"/>
</g>
<defs>
<clipPath id="clip0">
<rect width="512.002" height="512.002" fill="white"/>
</clipPath>
</defs>
</svg>
