<svg width="930" height="931" viewBox="0 0 930 931" fill="none" xmlns="http://www.w3.org/2000/svg">
<path d="M464.774 92.9998L464.775 465L250.001 92.9996L464.774 92.9998Z" fill="#BABABA"/>
<path d="M358.5 92.9996L464.776 464.998L250.002 92.9981L358.5 92.9996Z" fill="#CBCBCB"/>
<path d="M837 464.999L465 465L837 250.225L837 464.999Z" fill="#BABABA"/>
<path d="M837 358.725L465.001 465.001L837.001 250.227L837 358.725Z" fill="#CBCBCB"/>
<path d="M465.081 837.225L465.08 465.225L679.854 837.225L465.081 837.225Z" fill="#BABABA"/>
<path d="M571.355 837.226L465.079 465.227L679.853 837.227L571.355 837.226Z" fill="#CBCBCB"/>
<path d="M92.9998 465.306L465 465.306L92.9996 680.08L92.9998 465.306Z" fill="#BABABA"/>
<path d="M92.9996 571.581L464.998 465.304L92.9981 680.079L92.9996 571.581Z" fill="#CBCBCB"/>
<circle cx="465" cy="465" r="47" fill="#6F6F6F"/>
</svg>
